# xmcd
#
# Track frame offsets: 
#        150
#        13530
#        20740
#        32180
#        40725
#        47168
#        59808
#        72757
#        87527
#        92927
#        107102
#        118252
#        127917
#        141972
#        154566
#
# Disc length: 2266 seconds
#
# Revision: 0
# Processed by: cddbd v1.5.2PL0 Copyright (c) Steve Scherf et al.
# Submitted via: ExactAudioCopy v0.99pb3
#
DISCID=d508d80f
DTITLE=The Mules - Save Your Face
DYEAR=2005
DGENRE=Organ Grinder
TTITLE0=Polly-O
TTITLE1=Save Your Face
TTITLE2=Straight A's vs Drills
TTITLE3=Picking In My Business
TTITLE4=Seasonticketholder
TTITLE5=Here To Help
TTITLE6=Live Feed
TTITLE7=Tule Lake
TTITLE8=& Then Again
TTITLE9=We're Good People
TTITLE10=Plenty Warning
TTITLE11=Stamp Collecting
TTITLE12=Misprint
TTITLE13=The Catch
TTITLE14=Ham Shank
EXTD=
EXTT0=
EXTT1=
EXTT2=
EXTT3=
EXTT4=
EXTT5=
EXTT6=
EXTT7=
EXTT8=
EXTT9=
EXTT10=
EXTT11=
EXTT12=
EXTT13=
EXTT14=
PLAYORDER=
